PathFileType	4	(x/y/z)	S01_M20_T09.trc
DataRate	CameraRate	NumFrames	NumMarkers	Units	OrigDataRate	OrigDataStartFrame	OrigNumFrames
240	240	5	51	mm	240	295	471
Frame#	Time	Sternum			R.Acromium			L.Acromium			Top.Head			R.ASIS			L.ASIS			R.PSIS			L.PSIS			R.Great.Tro			L.Great.Tro			R.Iliac.Crest			L.Iliac.Crest			V.Sacral			R.Thigh.Upper.Post			R.Thigh.Lower.Ant			R.Thigh.Lower.Post			R.Thigh.Upper.Ant			R.Knee.Lat			R.Knee.Med			R.Shank.Upper.Post			R.Shank.Lower.Ant			R.Shank.Lower.Post			R.Shank.Upper.Ant			R.Ankle.Lat			R.Ankle.Med			R.Heel.Upper			R.Heel.Med			R.Heel.Lat			R.Toe.Lat			R.Toe.Med			R.Toe.Tip			L.Thigh.Upper.Post			L.Thigh.Lower.Ant			L.Thigh.Lower.Post			L.Thigh.Upper.Ant			L.Knee.Lat			L.Knee.Med			L.Shank.Upper.Post			L.Shank.Lower.Ant			L.Shank.Lower.Post			L.Shank.Upper.Ant			L.Ankle.Lat			L.Ankle.Med			L.Heel.Upper			L.Heel.Med			L.Heel.Lat			L.Toe.Lat			L.Toe.Med			L.Toe.Tip			Cervical.Spine			Back			
		X1	Y1	Z1	X2	Y2	Z2	X3	Y3	Z3	X4	Y4	Z4	X5	Y5	Z5	X6	Y6	Z6	X7	Y7	Z7	X8	Y8	Z8	X9	Y9	Z9	X10	Y10	Z10	X11	Y11	Z11	X12	Y12	Z12	X13	Y13	Z13	X14	Y14	Z14	X15	Y15	Z15	X16	Y16	Z16	X17	Y17	Z17	X18	Y18	Z18	X19	Y19	Z19	X20	Y20	Z20	X21	Y21	Z21	X22	Y22	Z22	X23	Y23	Z23	X24	Y24	Z24	X25	Y25	Z25	X26	Y26	Z26	X27	Y27	Z27	X28	Y28	Z28	X29	Y29	Z29	X30	Y30	Z30	X31	Y31	Z31	X32	Y32	Z32	X33	Y33	Z33	X34	Y34	Z34	X35	Y35	Z35	X36	Y36	Z36	X37	Y37	Z37	X38	Y38	Z38	X39	Y39	Z39	X40	Y40	Z40	X41	Y41	Z41	X42	Y42	Z42	X43	Y43	Z43	X44	Y44	Z44	X45	Y45	Z45	X46	Y46	Z46	X47	Y47	Z47	X48	Y48	Z48	X49	Y49	Z49	X50	Y50	Z50	X51	Y51	Z51	

295	1.225	319.33	1246.4	256.16	209.25	1496.7	430.11	170.94	1499.9	102.72	210.71	1814.5	244.28	267.5	982.81	427.55	280.29	997.68	160.9	33.743	1029.5	323.58	36.444	1024.8	220.27	176.63	929.28	501.58	187.59	947.37	76.312	187.07	1087.5	487.11	166.87	1070.6	81.813	21.959	990.52	269.29	88.153	640.75	484.69	143.02	554.6	473.77	74.204	553.28	473.16	161.27	643.4	485.87	68.771	486.1	472.92	101.9	473.45	331.46	-84.856	417.88	479.37	-102.83	314.68	446.44	-139.22	375.02	467.73	-50.534	363.19	465.13	-287.93	229.31	427.17	-250.71	210.1	339.72	-342.24	268.07	362.91	-351.76	243.02	327.73	-366.07	239.6	391.17	-282.64	73.967	450.23	-240.67	68.808	332.03	-190.63	36.836	389.11	269.95	666.86	109.15	375.69	635.3	112.19	314.05	589.58	131.14	322.81	711.73	88.646	396.41	533.26	126.58	408.61	549.06	266.04	375.65	389.26	108.18	450.71	312.32	137.76	390.22	312.72	113.59	437.17	387.71	129.13	409.95	101.42	150.57	435.76	116.69	248.17	342.24	70.467	200.62	355.25	47.544	235.18	352.02	43.431	172.77	559.78	46.967	135.18	588.01	62.216	254.8	649.15	76.235	201.36	100.41	1554.1	278.31	18.62	1242.3	306.22
296	1.2292	325.26	1247.4	255.44	215.11	1497.8	428.95	177.13	1500.7	101.64	216.75	1815.4	242.74	273.34	983.63	426.71	286.14	998.81	160.08	39.601	1030.2	323.18	42.271	1025.7	219.86	182.79	929.76	500.82	193.4	948.39	75.703	193.08	1088.5	486.29	172.45	1071.5	81.219	27.811	991.34	268.84	97.064	640.24	484.82	152.8	554.61	474.35	84.005	552.58	473.53	170.16	643.63	486.1	79.323	485.59	473.5	112.72	472.7	332.04	-74.732	419.04	479.67	-93.912	316.12	446.58	-129.63	376.95	467.94	-41.048	363.92	465.47	-279.94	233.56	426.8	-242.81	213.29	339.58	-332.81	273.72	362.25	-342.86	248.93	327.04	-357.56	245.97	390.41	-278.96	77.824	449.91	-236.19	71.26	332.31	-188.02	36.854	389.87	274.95	667.48	108.65	380.56	635.47	111.88	318.69	590.02	130.77	328.06	712.13	88.245	400.75	533.29	126.41	412.85	549.1	265.88	378.9	389.5	108.05	453.32	311.97	137.71	392.84	312.85	113.51	440.39	387.46	129.04	410.63	101.48	150.66	436.51	116.54	248.23	342.67	70.81	200.57	355.47	47.785	235.16	352.31	43.711	172.74	560.24	46.156	135.34	588.42	60.803	255.08	649.73	74.408	201.77	106.37	1555	277.06	24.585	1243.3	305.39
297	1.2333	331.14	1248.3	254.76	220.91	1499	427.83	183.29	1501.6	100.58	222.76	1816.3	241.24	279.11	984.51	425.91	291.95	999.93	159.29	45.39	1031	322.74	48.065	1026.6	219.4	188.87	930.3	500.08	199.2	949.41	75.098	198.95	1089.5	485.48	178	1072.3	80.582	33.62	992.17	268.34	106.03	639.79	484.95	162.65	554.71	474.91	93.873	551.96	473.87	179.09	643.93	486.32	89.947	485.16	474.06	123.58	472.07	332.57	-64.499	420.22	479.93	-84.83	317.59	446.66	-119.9	378.88	468.09	-31.428	364.71	465.77	-271.71	237.8	426.36	-234.66	216.46	339.38	-323.16	279.22	361.45	-333.69	254.68	326.24	-348.8	252.21	389.53	-274.88	81.822	449.61	-231.32	73.751	332.65	-185.05	37.032	390.72	279.83	668.1	108.17	385.31	635.62	111.62	323.2	590.47	130.42	333.21	712.53	87.89	404.96	533.31	126.27	416.91	549.11	265.77	382.01	389.71	107.97	455.81	311.62	137.7	395.33	312.96	113.47	443.46	387.2	128.98	411.25	101.56	150.77	437.19	116.4	248.31	343.07	71.124	200.54	355.68	48	235.15	352.57	43.973	172.71	560.67	45.45	135.51	588.78	59.486	255.38	650.24	72.718	202.2	112.29	1556	275.83	30.49	1244.4	304.54
298	1.2375	336.97	1249.3	254.13	226.64	1500.2	426.75	189.41	1502.5	99.548	228.75	1817.2	239.78	284.82	985.43	425.15	297.73	1001	158.52	51.115	1031.8	322.24	53.828	1027.5	218.89	194.86	930.9	499.36	205	950.43	74.502	204.68	1090.6	484.68	183.54	1073.2	79.902	39.388	993.03	267.78	115.05	639.41	485.07	172.55	554.89	475.45	103.8	551.41	474.19	188.08	644.3	486.53	100.63	484.83	474.59	134.46	471.56	333.06	-54.171	421.42	480.16	-75.593	319.09	446.68	-110.05	380.8	468.2	-21.686	365.54	466.02	-263.28	242.02	425.84	-226.28	219.58	339.11	-313.32	284.55	360.52	-324.28	260.21	325.33	-339.8	258.29	388.53	-270.39	85.935	449.34	-226.02	76.268	333.03	-181.67	37.389	391.65	284.61	668.74	107.71	389.95	635.77	111.41	327.59	590.91	130.09	338.26	712.93	87.58	409.02	533.32	126.17	420.81	549.1	265.7	384.97	389.91	107.93	458.18	311.27	137.71	397.71	313.07	113.46	446.4	386.93	128.94	411.82	101.65	150.89	437.81	116.27	248.41	343.43	71.409	200.52	355.87	48.192	235.14	352.8	44.219	172.69	561.06	44.84	135.68	589.1	58.264	255.68	650.71	71.162	202.63	118.17	1557	274.63	36.335	1245.4	303.69
299	1.2417	342.75	1250.3	253.53	232.3	1501.3	425.71	195.51	1503.4	98.542	234.72	1818.1	238.37	290.46	986.39	424.44	303.47	1002.1	157.8	56.777	1032.6	321.69	59.56	1028.5	218.33	200.76	931.56	498.67	210.79	951.45	73.916	210.26	1091.6	483.89	189.06	1074	79.182	45.113	993.92	267.17	124.11	639.11	485.19	182.48	555.16	475.97	113.76	550.95	474.49	197.09	644.76	486.74	111.35	484.6	475.1	145.36	471.17	333.49	-43.765	422.65	480.35	-66.211	320.63	446.64	-100.07	382.71	468.24	-11.834	366.44	466.22	-254.64	246.2	425.24	-217.66	222.65	338.77	-303.3	289.68	359.46	-314.64	265.5	324.31	-330.58	264.18	387.41	-265.45	90.137	449.12	-220.29	78.797	333.48	-177.85	37.946	392.66	289.28	669.38	107.25	394.49	635.92	111.23	331.85	591.36	129.78	343.21	713.33	87.312	412.96	533.33	126.1	424.57	549.09	265.66	387.81	390.09	107.92	460.43	310.93	137.74	399.96	313.16	113.47	449.2	386.67	128.92	412.34	101.74	151.03	438.37	116.16	248.53	343.76	71.669	200.5	356.04	48.365	235.13	353.02	44.449	172.67	561.42	44.314	135.86	589.39	57.136	255.99	651.13	69.732	203.06	124.01	1558.1	273.45	42.121	1246.5	302.82
